<svg  width="4" height="244" viewBox="0 0 6 244" fill="none" xmlns="http://www.w3.org/2000/svg">
<path d="M3 0.333333C1.52724 0.333333 0.333333 1.52724 0.333333 3C0.333333 4.47276 1.52724 5.66667 3 5.66667C4.47276 5.66667 5.66667 4.47276 5.66667 3C5.66667 1.52724 4.47276 0.333333 3 0.333333ZM2.99999 238.333C1.52723 238.333 0.333323 239.527 0.333323 241C0.333323 242.473 1.52723 243.667 2.99999 243.667C4.47275 243.667 5.66666 242.473 5.66666 241C5.66666 239.527 4.47275 238.333 2.99999 238.333ZM2.5 3L2.49999 241L3.49999 241L3.5 3L2.5 3Z" fill="black"/>
</svg>
