<svg width="577" height="577" viewBox="0 0 577 577" fill="none" xmlns="http://www.w3.org/2000/svg">
<g filter="url(#filter0_d_88_143)">
<g filter="url(#filter1_d_88_143)">
<rect x="48" y="40" width="481" height="481" rx="25" fill="white"/>
</g>
<path fill-rule="evenodd" clip-rule="evenodd" d="M226.42 161.123C259.261 159.736 304.946 157.808 342.813 159.144C365.398 159.942 379.328 182.274 365.835 200.404V200.404C359.716 208.626 349.969 212.83 339.727 213.224L290.953 215.104C289.547 215.158 288.463 216.361 288.556 217.765V217.765C288.645 219.116 289.793 220.15 291.146 220.098L305.954 219.527C322.019 218.908 329.464 237.221 316.076 246.122C307.264 251.981 299.699 256.166 294.945 258.496V258.496C294.584 258.672 294.146 258.586 293.893 258.274L284.428 246.603C274.561 234.438 255.61 231.001 242.1 238.927C228.59 246.853 225.636 263.141 235.503 275.307L258.234 303.335C274.496 323.387 259.845 353.29 234.035 352.728V352.728C215.455 352.324 201.615 335.444 204.108 317.028C211.172 264.851 214.228 211.372 215.535 172.119C215.734 166.17 220.473 161.374 226.42 161.123V161.123ZM405.531 484.953L322.783 382.925C308.506 365.321 287.208 354.886 264.547 354.393V354.393C226.539 353.565 194.725 380.922 183.305 417.183C174.348 445.621 162.981 468.886 148.558 482.535C116.703 512.68 114.123 511.74 118.196 471.452V181.015C118.196 129.1 160.281 87.0151 212.196 87.0151H393.456C413.15 87.0151 435.237 91.4321 443.297 109.401V109.401C462.304 151.768 448.901 200.972 415.542 233.275C393.957 254.175 365.366 266.613 335.322 266.279V266.279C322.627 266.139 313.808 282.83 321.805 292.69L454.456 456.25C464.322 468.416 461.369 484.703 447.858 492.63C434.348 500.556 415.397 497.119 405.531 484.953Z" fill="url(#paint0_linear_88_143)"/>
<path d="M241.474 209.995C227.964 217.921 225.01 234.209 234.877 246.374L404.905 456.021C414.771 468.187 433.722 471.623 447.232 463.697V463.697C460.742 455.771 463.696 439.483 453.83 427.317L283.802 217.671C273.935 205.505 254.984 202.068 241.474 209.995V209.995Z" fill="url(#paint1_linear_88_143)" fill-opacity="0.56"/>
<g filter="url(#filter2_d_88_143)">
<path d="M344.271 65.2652C344.57 65.4025 344.748 65.181 344.479 64.9925V64.9925C344.209 64.8039 345.032 63.5081 345.319 63.6699C371.438 78.4048 412.908 97.5419 415.97 72.5489C418.03 55.7389 426.473 70.1587 435.017 90.716C449.302 125.085 438.496 164.227 411.758 190.118L409.186 192.608C383.557 217.426 299.264 216.634 331.301 200.936V200.936C353.506 190.056 429.247 138.957 371.454 90.3827C345.47 68.5437 341.153 63.8338 344.271 65.2652Z" fill="#9F9DFD" fill-opacity="0.66" shape-rendering="crispEdges"/>
</g>
<path d="M356.249 72.5126C356.419 72.7351 356.714 72.5331 356.575 72.2897V72.2897C356.449 72.0694 356.689 71.8053 356.892 71.9583C364.106 77.4034 412.417 112.736 415.968 85.2077C417.588 72.6439 422.962 81.5487 428.63 96.0329C440.46 126.258 430.284 160.175 407.063 182.813L400.739 188.978C383.762 205.528 333.177 211.172 350.978 195.512V195.512C365.367 182.855 425.871 138.471 384.651 98.1322C353.32 67.4702 354.081 69.6854 356.249 72.5126Z" fill="#BEBDF9" fill-opacity="0.77"/>
<g filter="url(#filter3_d_88_143)">
<path d="M176.606 141.441C170.781 132.61 173.791 120.705 183.103 115.741V115.741C195.135 109.327 209.542 118.049 209.034 131.689C206.317 204.602 194.865 387.294 147.832 429.039V429.039C118.854 454.759 122.153 453.745 128.866 415.548L147.832 307.625L185.246 170.931C187.261 163.568 186.002 155.685 181.79 149.3L176.606 141.441Z" fill="#9F9DFD" fill-opacity="0.66" shape-rendering="crispEdges"/>
</g>
<g filter="url(#filter4_d_88_143)">
<path d="M176.606 141.441C170.781 132.61 173.791 120.705 183.103 115.741V115.741C195.135 109.327 209.542 118.049 209.034 131.689C206.317 204.602 194.865 387.294 147.832 429.039V429.039C118.854 454.759 122.153 453.745 128.866 415.548L147.832 307.625L185.246 170.931C187.261 163.568 186.002 155.685 181.79 149.3L176.606 141.441Z" fill="#9F9DFD" fill-opacity="0.66" shape-rendering="crispEdges"/>
</g>
<path d="M169.226 150.378C162.271 141.214 165.217 128.01 175.403 122.695V122.695C187.676 116.291 202.266 124.984 202.038 138.833C200.865 210.343 192.981 387.496 144.194 429.339V429.339C113.675 455.515 117.484 454.322 124.079 414.641L141.28 311.152L177.651 177.314C179.649 169.962 178.117 162.094 173.506 156.018L169.226 150.378Z" fill="#9F9DFD" fill-opacity="0.59"/>
<g filter="url(#filter5_d_88_143)">
<path d="M280.162 235.839C269.435 242.132 267.09 255.065 274.924 264.724L433.351 460.067C441.185 469.726 456.232 472.455 466.959 466.162V466.162C477.686 459.868 480.031 446.936 472.197 437.277L313.769 241.934C305.935 232.274 290.889 229.546 280.162 235.839V235.839Z" fill="#9F9DFD" fill-opacity="0.66" shape-rendering="crispEdges"/>
</g>
</g>
<defs>
<filter id="filter0_d_88_143" x="44" y="40" width="489" height="489" filterUnits="userSpaceOnUse" color-interpolation-filters="sRGB">
<feFlood flood-opacity="0" result="BackgroundImageFix"/>
<feColorMatrix in="SourceAlpha" type="matrix" values="0 0 0 0 0 0 0 0 0 0 0 0 0 0 0 0 0 0 127 0" result="hardAlpha"/>
<feOffset dy="4"/>
<feGaussianBlur stdDeviation="2"/>
<feComposite in2="hardAlpha" operator="out"/>
<feColorMatrix type="matrix" values="0 0 0 0 0 0 0 0 0 0 0 0 0 0 0 0 0 0 0.25 0"/>
<feBlend mode="normal" in2="BackgroundImageFix" result="effect1_dropShadow_88_143"/>
<feBlend mode="normal" in="SourceGraphic" in2="effect1_dropShadow_88_143" result="shape"/>
</filter>
<filter id="filter1_d_88_143" x="0" y="0" width="577" height="577" filterUnits="userSpaceOnUse" color-interpolation-filters="sRGB">
<feFlood flood-opacity="0" result="BackgroundImageFix"/>
<feColorMatrix in="SourceAlpha" type="matrix" values="0 0 0 0 0 0 0 0 0 0 0 0 0 0 0 0 0 0 127 0" result="hardAlpha"/>
<feOffset dy="8"/>
<feGaussianBlur stdDeviation="24"/>
<feComposite in2="hardAlpha" operator="out"/>
<feColorMatrix type="matrix" values="0 0 0 0 0 0 0 0 0 0 0 0 0 0 0 0 0 0 0.12 0"/>
<feBlend mode="normal" in2="BackgroundImageFix" result="effect1_dropShadow_88_143"/>
<feBlend mode="normal" in="SourceGraphic" in2="effect1_dropShadow_88_143" result="shape"/>
</filter>
<filter id="filter2_d_88_143" x="320.136" y="63.656" width="125.21" height="156.442" filterUnits="userSpaceOnUse" color-interpolation-filters="sRGB">
<feFlood flood-opacity="0" result="BackgroundImageFix"/>
<feColorMatrix in="SourceAlpha" type="matrix" values="0 0 0 0 0 0 0 0 0 0 0 0 0 0 0 0 0 0 127 0" result="hardAlpha"/>
<feOffset dy="4"/>
<feGaussianBlur stdDeviation="2"/>
<feComposite in2="hardAlpha" operator="out"/>
<feColorMatrix type="matrix" values="0 0 0 0 0 0 0 0 0 0 0 0 0 0 0 0 0 0 0.25 0"/>
<feBlend mode="normal" in2="BackgroundImageFix" result="effect1_dropShadow_88_143"/>
<feBlend mode="normal" in="SourceGraphic" in2="effect1_dropShadow_88_143" result="shape"/>
</filter>
<filter id="filter3_d_88_143" x="120.276" y="113.594" width="92.7712" height="340.979" filterUnits="userSpaceOnUse" color-interpolation-filters="sRGB">
<feFlood flood-opacity="0" result="BackgroundImageFix"/>
<feColorMatrix in="SourceAlpha" type="matrix" values="0 0 0 0 0 0 0 0 0 0 0 0 0 0 0 0 0 0 127 0" result="hardAlpha"/>
<feOffset dy="4"/>
<feGaussianBlur stdDeviation="2"/>
<feComposite in2="hardAlpha" operator="out"/>
<feColorMatrix type="matrix" values="0 0 0 0 0 0 0 0 0 0 0 0 0 0 0 0 0 0 0.25 0"/>
<feBlend mode="normal" in2="BackgroundImageFix" result="effect1_dropShadow_88_143"/>
<feBlend mode="normal" in="SourceGraphic" in2="effect1_dropShadow_88_143" result="shape"/>
</filter>
<filter id="filter4_d_88_143" x="120.276" y="113.594" width="92.7712" height="340.979" filterUnits="userSpaceOnUse" color-interpolation-filters="sRGB">
<feFlood flood-opacity="0" result="BackgroundImageFix"/>
<feColorMatrix in="SourceAlpha" type="matrix" values="0 0 0 0 0 0 0 0 0 0 0 0 0 0 0 0 0 0 127 0" result="hardAlpha"/>
<feOffset dy="4"/>
<feGaussianBlur stdDeviation="2"/>
<feComposite in2="hardAlpha" operator="out"/>
<feColorMatrix type="matrix" values="0 0 0 0 0 0 0 0 0 0 0 0 0 0 0 0 0 0 0.25 0"/>
<feBlend mode="normal" in2="BackgroundImageFix" result="effect1_dropShadow_88_143"/>
<feBlend mode="normal" in="SourceGraphic" in2="effect1_dropShadow_88_143" result="shape"/>
</filter>
<filter id="filter5_d_88_143" x="266.294" y="232.452" width="214.533" height="245.097" filterUnits="userSpaceOnUse" color-interpolation-filters="sRGB">
<feFlood flood-opacity="0" result="BackgroundImageFix"/>
<feColorMatrix in="SourceAlpha" type="matrix" values="0 0 0 0 0 0 0 0 0 0 0 0 0 0 0 0 0 0 127 0" result="hardAlpha"/>
<feOffset dy="4"/>
<feGaussianBlur stdDeviation="2"/>
<feComposite in2="hardAlpha" operator="out"/>
<feColorMatrix type="matrix" values="0 0 0 0 0 0 0 0 0 0 0 0 0 0 0 0 0 0 0.25 0"/>
<feBlend mode="normal" in2="BackgroundImageFix" result="effect1_dropShadow_88_143"/>
<feBlend mode="normal" in="SourceGraphic" in2="effect1_dropShadow_88_143" result="shape"/>
</filter>
<linearGradient id="paint0_linear_88_143" x1="288.501" y1="87.0151" x2="288.501" y2="503.599" gradientUnits="userSpaceOnUse">
<stop stop-color="#735FFF"/>
<stop offset="1" stop-color="#7E7E7E"/>
</linearGradient>
<linearGradient id="paint1_linear_88_143" x1="319.891" y1="351.198" x2="363.446" y2="315.873" gradientUnits="userSpaceOnUse">
<stop stop-color="#535353"/>
<stop offset="1" stop-color="#644EFC"/>
</linearGradient>
</defs>
</svg>
